<svg width="224" height="234" viewBox="0 0 224 234" fill="none" xmlns="http://www.w3.org/2000/svg">
<path fill-rule="evenodd" clip-rule="evenodd" d="M138.887 13.248L185.5 0L159.845 20.7044C159.859 20.7111 159.873 20.7178 159.887 20.7245L54 106L30 81L43.5 160L170.561 26.5107C178.22 31.2181 185.27 36.8214 191.565 43.1745L218.614 31.8704L218.5 32L119 152L95 123.5L112 206L206.053 61.1648C217.407 78.6818 224 99.571 224 122C224 183.856 173.856 234 112 234C50.1441 234 0 183.856 0 122C0 60.1441 50.1441 9.99999 112 9.99999C121.268 9.99999 130.274 11.1258 138.887 13.248Z" fill="#525298"/>
</svg>
