<svg width="21" height="21" viewBox="0 0 21 21" fill="none" xmlns="http://www.w3.org/2000/svg">
<path d="M8.71778 16.8244C9.15521 16.7319 11.8206 16.7319 12.258 16.8244C12.632 16.9108 13.0364 17.1126 13.0364 17.5532C13.0146 17.9727 12.7685 18.3446 12.4285 18.5808C11.9876 18.9245 11.4702 19.1422 10.9292 19.2206C10.6301 19.2594 10.3362 19.2602 10.0474 19.2206C9.50567 19.1422 8.98824 18.9245 8.5482 18.5799C8.20731 18.3446 7.96121 17.9727 7.93947 17.5532C7.93947 17.1126 8.34384 16.9108 8.71778 16.8244ZM10.5396 1.75C12.3597 1.75 14.219 2.61364 15.3234 4.04658C16.04 4.96927 16.3687 5.89107 16.3687 7.32401V7.69679C16.3687 8.79573 16.6591 9.44346 17.2983 10.1899C17.7827 10.7398 17.9375 11.4457 17.9375 12.2115C17.9375 12.9765 17.6862 13.7026 17.1827 14.2922C16.5235 14.999 15.5939 15.4502 14.6451 15.5286C13.2702 15.6458 11.8944 15.7445 10.5004 15.7445C9.10555 15.7445 7.73067 15.6855 6.35578 15.5286C5.40615 15.4502 4.47652 14.999 3.81821 14.2922C3.31469 13.7026 3.0625 12.9765 3.0625 12.2115C3.0625 11.4457 3.21816 10.7398 3.70168 10.1899C4.36086 9.44346 4.63218 8.79573 4.63218 7.69679V7.32401C4.63218 5.8523 4.99916 4.88995 5.75487 3.94788C6.87843 2.57398 8.67943 1.75 10.4613 1.75H10.5396Z" fill="#F9F9FA"/>
</svg>
